SplineFontDB: 3.0
FontName: SSV_Font_A
FullName: SSV_Font_A
FamilyName: SSV_Font_A
Weight: Regular
Copyright: 
Version: 001.000
ItalicAngle: 0
UnderlinePosition: -100
UnderlineWidth: 50
Ascent: 1000
Descent: 0
InvalidEm: 0
LayerCount: 2
Layer: 0 0 "Back" 1
Layer: 1 0 "Fore" 0
XUID: [1021 726 900175939 3144]
StyleMap: 0x0000
FSType: 0
OS2Version: 0
OS2_WeightWidthSlopeOnly: 0
OS2_UseTypoMetrics: 1
CreationTime: 1466782824
ModificationTime: 1589129133
PfmFamily: 49
TTFWeight: 400
TTFWidth: 5
LineGap: 90
VLineGap: 90
OS2TypoAscent: 0
OS2TypoAOffset: 1
OS2TypoDescent: 0
OS2TypoDOffset: 1
OS2TypoLinegap: 90
OS2WinAscent: 0
OS2WinAOffset: 1
OS2WinDescent: 0
OS2WinDOffset: 1
HheadAscent: 0
HheadAOffset: 1
HheadDescent: 0
HheadDOffset: 1
OS2Vendor: 'PfEd'
MarkAttachClasses: 1
DEI: 91125
LangName: 1033
Encoding: ISO8859-1
UnicodeInterp: none
NameList: AGL For New Fonts
DisplaySize: -48
AntiAlias: 1
FitToEm: 0
WinInfo: 36 18 6
BeginPrivate: 0
EndPrivate
TeXData: 1 0 0 346030 173015 115343 0 1048576 115343 783286 444596 497025 792723 393216 433062 380633 303038 157286 324010 404750 52429 2506097 1059062 262144
BeginChars: 256 82

StartChar: zero
Encoding: 48 48 0
Width: 1000
VWidth: 0
HStem: 10 110<398.67 604.27> 880 110<390.821 607.21>
VStem: 80 110<356.33 641.046> 810 110<359.72 640.693>
LayerCount: 2
Fore
SplineSet
500 700 m 5
 700 440 l 5
 300 440 l 5
 500 700 l 5
190 500 m 4
 190 275 332 120 500 120 c 4
 675 120 810 281 810 500 c 4
 810 721 675 880 500 880 c 4
 321 880 190 721 190 500 c 4
80 500 m 4
 80 782 257 990 500 990 c 4
 736 990 920 780 920 500 c 4
 920 220 740 10 500 10 c 4
 260 10 80 240 80 500 c 4
EndSplineSet
Validated: 1
EndChar

StartChar: asterisk
Encoding: 42 42 1
Width: 1000
VWidth: 0
Flags: W
HStem: 445 110<80 380 620 920>
LayerCount: 2
Fore
SplineSet
620 445 m 1
 876 158 l 1
 790 83 l 1
 500 415 l 1
 203 83 l 1
 124 158 l 1
 380 445 l 1
 80 445 l 1
 80 555 l 1
 380 555 l 1
 124 842 l 1
 204 917 l 1
 500 586 l 1
 795 917 l 1
 876 842 l 1
 620 555 l 1
 920 555 l 1
 920 445 l 1
 620 445 l 1
EndSplineSet
Validated: 1
EndChar

StartChar: T
Encoding: 84 84 2
Width: 1000
VWidth: 0
HStem: 880 110<80 445 555 920>
VStem: 445 110<10 880>
LayerCount: 2
Fore
SplineSet
80 990 m 1
 920 990 l 1
 920 880 l 5
 555 880 l 1
 555 10 l 1
 445 10 l 1
 445 880 l 1
 80 880 l 1
 80 990 l 1
EndSplineSet
Validated: 1
EndChar

StartChar: H
Encoding: 72 72 3
Width: 1000
VWidth: 0
HStem: 445 110<190 810>
VStem: 80 110<10 445 555 990> 810 110<10 445 555 990>
LayerCount: 2
Fore
SplineSet
80 990 m 25
 190 990 l 25
 190 555 l 25
 810 555 l 25
 810 990 l 25
 920 990 l 25
 920 10 l 25
 810 10 l 25
 810 445 l 25
 190 445 l 25
 190 10 l 25
 80 10 l 25
 80 990 l 25
EndSplineSet
Validated: 1
EndChar

StartChar: L
Encoding: 76 76 4
Width: 1000
VWidth: 0
HStem: 10 110<190 920>
VStem: 80 110<120 990>
LayerCount: 2
Fore
SplineSet
80 990 m 25
 190 990 l 25
 190 120 l 25
 920 120 l 25
 920 10 l 25
 80 10 l 25
 80 990 l 25
EndSplineSet
Validated: 1
EndChar

StartChar: four
Encoding: 52 52 5
Width: 1000
VWidth: 0
HStem: 10 21G<645 755> 10 21G<645 755> 175 110<221 645 755 920> 970 20G<628.972 755>
VStem: 645 110<10 175 285 815>
LayerCount: 2
Fore
SplineSet
221 285 m 1x38
 645 285 l 1
 645 815 l 1
 221 285 l 1x38
920 285 m 1
 920 175 l 25
 755 175 l 1
 755 10 l 1
 645 10 l 1xb8
 645 175 l 1
 80 175 l 1
 80 285 l 5
 645 990 l 1
 755 990 l 1
 755 285 l 25
 920 285 l 1
EndSplineSet
Validated: 1
EndChar

StartChar: one
Encoding: 49 49 6
Width: 1000
VWidth: 0
HStem: 10 110<280 445 555 720> 970 20G<427.258 555>
VStem: 445 110<120 821>
LayerCount: 2
Fore
SplineSet
280 10 m 1
 280 120 l 1
 445 120 l 1
 445 821 l 25
 362 731 l 25
 280 804 l 25
 445 990 l 25
 555 990 l 25
 555 120 l 1
 720 120 l 1
 720 10 l 1
 280 10 l 1
EndSplineSet
Validated: 1
EndChar

StartChar: three
Encoding: 51 51 7
Width: 1000
VWidth: 0
HStem: 10 109<328.816 636.358> 880 110<80 753>
VStem: 810 110<257.336 427.02>
LayerCount: 2
Fore
SplineSet
803 566 m 0
 850 531 872 503 894 457 c 0
 911 421 920 386 920 346 c 0
 920 314 913 278 897 235 c 0
 869 160 829 124 746 73 c 0
 721 57 605 10 505 10 c 0
 502 10 499 10 496 10 c 0
 370 14 293 32 234 60 c 0
 166 92 139 103 97 147 c 0
 85 160 78 173 78 186 c 0
 78 186 78 187 78 188 c 0
 81 226 106 238 135 238 c 0
 146 238 157 235 167 228 c 0
 223 188 238 177 310 147 c 0
 358 128 424 119 494 119 c 0
 504 119 515 120 526 120 c 0
 600 123 723 157 769 223 c 0
 792 256 810 305 810 353 c 0
 810 393 802 411 775 445 c 0
 748 479 682 514 633 532 c 0
 602 542 544 557 500 565 c 25
 500 675 l 17
 753 880 l 1
 80 880 l 1
 80 990 l 1
 920 990 l 1
 920 880 l 13
 632 641 l 17
 700 629 746 608 803 566 c 0
EndSplineSet
Validated: 1
EndChar

StartChar: two
Encoding: 50 50 8
Width: 1000
VWidth: 0
Flags: W
HStem: 10 110<190 920> 445 110<360.75 707.565> 880 110<349.511 674.66>
VStem: 80 110<120 267.665> 810 110<636.007 776.386>
LayerCount: 2
Fore
SplineSet
220 797 m 0
 192 782 166 768 143 768 c 0
 131 768 119 772 109 783 c 0
 101 792 97 802 97 811 c 0
 97 835 118 861 146 881 c 0
 182 907 234 940 305 960 c 0
 368 978 436 990 500 990 c 0
 567 990 623 983 672 970 c 0
 717 959 741 951 786 925 c 0
 812 910 826 897 840 884 c 0
 855 870 869 857 880 840 c 0
 892 822 902 804 908 784 c 0
 915 766 920 741 920 710 c 0
 920 648 896 594 868 554 c 0
 847 524 812 501 789 488 c 0
 764 475 720 465 683 458 c 0
 641 450 604 445 500 445 c 0
 393 445 359 426 318 401 c 0
 277 377 250 350 220 288 c 0
 207 261 202 235 196 202 c 0
 193 185 190 135 190 120 c 1
 920 120 l 1
 920 10 l 1
 80 10 l 1
 80 120 l 1
 81 160 85 212 94 252 c 0
 108 310 118 342 155 394 c 0
 189 442 216 468 265 497 c 0
 322 531 385 555 500 555 c 0
 569 555 616 560 670 568 c 0
 711 574 751 590 771 614 c 0
 795 642 810 665 810 710 c 0
 810 748 786 786 763 808 c 0
 737 833 692 855 664 861 c 0
 613 872 566 880 500 880 c 0
 432 880 373 870 312 845 c 0
 270 828 257 817 220 797 c 0
EndSplineSet
Validated: 1
EndChar

StartChar: slash
Encoding: 47 47 9
Width: 1000
VWidth: 0
HStem: 970 20G<820.308 859.74>
LayerCount: 2
Fore
SplineSet
920 917 m 29
 163 10 l 29
 80 83 l 29
 837 990 l 29
 920 917 l 29
EndSplineSet
Validated: 1
EndChar

StartChar: period
Encoding: 46 46 10
Width: 1000
VWidth: 0
HStem: 10 110<445 555>
VStem: 445 110<10 120>
LayerCount: 2
Fore
SplineSet
445 120 m 1
 555 120 l 5
 555 10 l 1
 445 10 l 1
 445 120 l 1
EndSplineSet
Validated: 1
EndChar

StartChar: colon
Encoding: 58 58 11
Width: 1000
VWidth: 0
HStem: 280 110<445 555> 610 111<445 555>
VStem: 445 110<280 390 610 721>
LayerCount: 2
Fore
SplineSet
445 721 m 1
 555 721 l 1
 555 610 l 1
 445 610 l 1
 445 721 l 1
445 390 m 1
 555 390 l 1
 555 280 l 1
 445 280 l 1
 445 390 l 1
EndSplineSet
Validated: 1
EndChar

StartChar: hyphen
Encoding: 45 45 12
Width: 1000
VWidth: 0
HStem: 445 110<80 920>
LayerCount: 2
Fore
SplineSet
80 555 m 5
 920 555 l 5
 920 445 l 5
 80 445 l 5
 80 555 l 5
EndSplineSet
Validated: 1
EndChar

StartChar: plus
Encoding: 43 43 13
Width: 1000
VWidth: 0
Flags: W
HStem: 445 110<80 445 555 920>
VStem: 445 110<80 445 555 920>
LayerCount: 2
Fore
SplineSet
445 445 m 1
 80 445 l 1
 80 555 l 5
 445 555 l 1
 445 920 l 1
 555 920 l 1
 555 555 l 1
 920 555 l 1
 920 445 l 1
 555 445 l 1
 555 80 l 1
 445 80 l 1
 445 445 l 1
EndSplineSet
Validated: 1
EndChar

StartChar: O
Encoding: 79 79 14
Width: 1000
VWidth: 0
Flags: W
HStem: 10 110<398.67 604.27> 880 110<390.821 607.21>
VStem: 80 110<356.33 641.046> 810 110<359.72 640.693>
LayerCount: 2
Fore
SplineSet
190 500 m 4
 190 275 332 120 500 120 c 4
 675 120 810 281 810 500 c 4
 810 721 675 880 500 880 c 4
 321 880 190 721 190 500 c 4
80 500 m 4
 80 782 257 990 500 990 c 4
 736 990 920 780 920 500 c 4
 920 220 740 10 500 10 c 4
 260 10 80 240 80 500 c 4
EndSplineSet
Validated: 1
EndChar

StartChar: equal
Encoding: 61 61 15
Width: 1000
VWidth: 0
Flags: W
HStem: 280 110<80 920> 610 111<80 920>
LayerCount: 2
Fore
SplineSet
80 721 m 1
 920 721 l 1
 920 610 l 1
 80 610 l 1
 80 721 l 1
80 390 m 1
 920 390 l 1
 920 280 l 1
 80 280 l 1
 80 390 l 1
EndSplineSet
Validated: 1
EndChar

StartChar: Q
Encoding: 81 81 16
Width: 1000
VWidth: 0
Flags: W
HStem: 10 110<398.67 607.303> 880 110<390.821 607.21>
VStem: 80 110<356.33 641.046> 810 110<357.086 640.693>
LayerCount: 2
Fore
SplineSet
80 500 m 0
 80 782 257 990 500 990 c 0
 736 990 920 780 920 500 c 0
 920 381 888 275 832 192 c 1
 920 82 l 1
 837 10 l 1
 758 108 l 1
 688 46 599 10 500 10 c 0
 260 10 80 240 80 500 c 0
190 500 m 0
 190 275 332 120 500 120 c 0
 572 120 637 147 689 194 c 1
 500 430 l 1
 585 500 l 1
 758 284 l 1
 791 344 810 418 810 500 c 0
 810 721 675 880 500 880 c 0
 321 880 190 721 190 500 c 0
EndSplineSet
Validated: 1
EndChar

StartChar: I
Encoding: 73 73 17
Width: 1000
VWidth: 0
Flags: W
HStem: 10 110<280 445 555 720> 880 110<280 445 555 720>
VStem: 445 110<120 880>
LayerCount: 2
Fore
SplineSet
445 880 m 25
 280 880 l 25
 280 990 l 25
 720 990 l 1
 720 880 l 1
 555 880 l 1
 555 120 l 1
 720 120 l 1
 720 10 l 1
 280 10 l 1
 280 120 l 1
 445 120 l 1
 445 880 l 25
EndSplineSet
Validated: 1
EndChar

StartChar: percent
Encoding: 37 37 18
Width: 1000
VWidth: 0
Flags: W
HStem: 10 110<650.43 769.57> 320 110<650.43 769.57> 570 110<230.43 349.57> 880 110<230.43 349.57>
VStem: 80 110<720.43 839.57> 390 110<720.43 839.57> 500 110<160.43 279.57> 810 110<160.43 279.57>
LayerCount: 2
Fore
SplineSet
610 220 m 4xfb
 610 165 655 120 710 120 c 0
 765 120 810 165 810 220 c 0
 810 275 765 320 710 320 c 0
 655 320 610 275 610 220 c 4xfb
190 780 m 0
 190 725 235 680 290 680 c 0
 345 680 390 725 390 780 c 0xfd
 390 835 345 880 290 880 c 0
 235 880 190 835 190 780 c 0
500 220 m 0xfb
 500 336 594 430 710 430 c 0
 826 430 920 336 920 220 c 0
 920 104 826 10 710 10 c 0
 594 10 500 104 500 220 c 0xfb
80 780 m 0
 80 896 174 990 290 990 c 0
 406 990 500 896 500 780 c 0xfd
 500 664 406 570 290 570 c 0
 174 570 80 664 80 780 c 0
920 917 m 25
 163 10 l 25
 80 83 l 25
 837 990 l 25
 920 917 l 25
EndSplineSet
Validated: 1
EndChar

StartChar: seven
Encoding: 55 55 19
Width: 1000
VWidth: 0
HStem: 10 21G<441 567.299> 880 110<300 802>
LayerCount: 2
Fore
SplineSet
300 990 m 25
 920 990 l 25
 920 880 l 25
 559 10 l 25
 441 10 l 25
 802 880 l 25
 300 880 l 25
 300 990 l 25
EndSplineSet
Validated: 1
EndChar

StartChar: N
Encoding: 78 78 20
Width: 1000
VWidth: 0
HStem: 10 21G<80 190 794.5 920> 970 20G<80 205.461 810 920>
VStem: 80 110<10 810> 810 110<188 990>
LayerCount: 2
Fore
SplineSet
80 10 m 25
 80 990 l 25
 190 990 l 25
 810 188 l 25
 810 990 l 25
 920 990 l 25
 920 10 l 25
 810 10 l 25
 190 810 l 25
 190 10 l 25
 80 10 l 25
EndSplineSet
Validated: 1
EndChar

StartChar: X
Encoding: 88 88 21
Width: 1000
VWidth: 0
Flags: W
HStem: 10 21G<140.26 179.683 820.317 859.74> 970 20G<140.26 179.683 820.317 859.74>
LayerCount: 2
Fore
SplineSet
920 83 m 1
 837 10 l 1
 500 414 l 1
 163 10 l 1
 80 83 l 1
 428 500 l 1
 80 917 l 1
 163 990 l 1
 500 586 l 1
 837 990 l 1
 920 917 l 1
 572 500 l 1
 920 83 l 1
EndSplineSet
Validated: 1
EndChar

StartChar: V
Encoding: 86 86 22
Width: 1000
VWidth: 0
HStem: 10 21G<437.551 562.449> 970 20G<80 205.429 793.595 920>
LayerCount: 2
Fore
SplineSet
801 990 m 1
 920 990 l 25
 555 10 l 25
 445 10 l 1
 80 990 l 25
 198 990 l 1
 500 177 l 9
 801 990 l 1
EndSplineSet
Validated: 1
EndChar

StartChar: Z
Encoding: 90 90 23
Width: 1000
VWidth: 0
HStem: 10 110<228 920> 445 110<190 375 624 810> 880 110<80 771>
LayerCount: 2
Fore
SplineSet
80 990 m 1
 920 990 l 1
 920 880 l 1
 624 555 l 1
 810 555 l 1
 810 445 l 1
 524 445 l 1
 228 120 l 1
 920 120 l 1
 920 10 l 1
 80 10 l 1
 80 120 l 1
 375 445 l 1
 190 445 l 1
 190 555 l 1
 475 555 l 1
 771 880 l 1
 80 880 l 1
 80 990 l 1
EndSplineSet
Validated: 1
EndChar

StartChar: Y
Encoding: 89 89 24
Width: 1000
VWidth: 0
HStem: 10 21G<445 555> 970 20G<80 231.974 768.026 920>
VStem: 445 110<10 500>
LayerCount: 2
Fore
SplineSet
783 990 m 25
 920 990 l 25
 555 500 l 25
 555 10 l 25
 445 10 l 25
 445 500 l 1
 80 990 l 25
 217 990 l 1
 500 612 l 25
 783 990 l 25
EndSplineSet
Validated: 1
EndChar

StartChar: M
Encoding: 77 77 25
Width: 1000
VWidth: 0
HStem: 10 21G<80 190 810 920> 970 20G<80 206.23 793.77 920>
VStem: 80 110<10 816> 810 110<10 816>
LayerCount: 2
Fore
SplineSet
920 990 m 25
 920 10 l 25
 810 10 l 25
 810 816 l 25
 555 500 l 25
 445 500 l 25
 190 816 l 29
 190 10 l 25
 80 10 l 25
 80 990 l 25
 190 990 l 25
 500 608 l 25
 810 990 l 25
 920 990 l 25
EndSplineSet
Validated: 1
EndChar

StartChar: F
Encoding: 70 70 26
Width: 1000
VWidth: 0
HStem: 10 21G<80 190> 445 110<190 720> 880 110<190 920>
VStem: 80 110<10 445 555 880>
LayerCount: 2
Fore
SplineSet
80 990 m 25
 920 990 l 1
 920 880 l 25
 190 880 l 25
 190 555 l 25
 720 555 l 25
 720 445 l 25
 190 445 l 25
 190 10 l 25
 80 10 l 1
 80 990 l 25
EndSplineSet
Validated: 1
EndChar

StartChar: E
Encoding: 69 69 27
Width: 1000
VWidth: 0
Flags: W
HStem: 10 110<190 920> 445 110<190 720> 880 110<190 820>
VStem: 80 110<120 445 555 880>
LayerCount: 2
Fore
SplineSet
80 990 m 25
 820 990 l 1
 820 880 l 25
 190 880 l 25
 190 555 l 25
 720 555 l 25
 720 445 l 25
 190 445 l 17
 190 120 l 1
 920 120 l 1
 920 10 l 9
 80 10 l 1
 80 990 l 25
EndSplineSet
Validated: 1
EndChar

StartChar: P
Encoding: 80 80 28
Width: 1000
VWidth: 0
Flags: W
HStem: 10 21G<80 190> 445 110<190 722.956> 880 110<190 728.203>
VStem: 80 110<10 445 555 880> 810 110<633.581 797.893>
LayerCount: 2
Fore
SplineSet
818 933 m 1048,0,-1
609 990 m 2,1,-1
 609 990 610 990 610 990 c 0,4,-1
 640 990 682 986 722 978 c 0,7,-1
 749 972 769 963 788 950 c 0,10,-1
 823 925 852 899 876 863 c 0,13,-1
 909 813 920 762 920 717 c 0,16,-1
 920 672 908 638 897 611 c 0,19,-1
 881 572 869 557 849 535 c 0,22,-1
 835 520 817 500 800 492 c 0,25,-1
 778 480 752 466 729 461 c 0,28,-1
 692 452 645 445 610 445 c 2,31,-1
 190 445 l 1,32,-1
 190 10 l 1,33,-1
 80 10 l 1,34,-1
 80 990 l 1,35,-1
 609 990 l 2,1,-1
610 880 m 2,36,-1
 190 880 l 5,37,-1
 190 555 l 1,38,-1
 610 555 l 2,39,-1
 644 556 695 565 719 575 c 0,42,-1
 748 587 758 594 779 620 c 0,45,-1
 798 644 810 676 810 717 c 0,48,-1
 810 754 797 789 778 813 c 0,51,-1
 761 835 749 848 719 863 c 0,54,-1
 695 875 638 880 610 880 c 2,36,-1
EndSplineSet
Validated: 1
EndChar

StartChar: R
Encoding: 82 82 29
Width: 1000
VWidth: 0
Flags: W
HStem: 10 21G<80 190 819.678 861.053> 445 110<190 398 555 722.956> 880 110<190 728.203>
VStem: 80 110<10 445 555 880> 810 110<633.581 797.893>
LayerCount: 2
Fore
SplineSet
818 933 m 1048,0,-1
610 880 m 2,1,-1
 190 880 l 1,2,-1
 190 555 l 1,3,-1
 610 555 l 2,4,-1
 644 556 695 565 719 575 c 0,7,-1
 748 587 758 594 779 620 c 0,10,-1
 798 644 810 676 810 717 c 0,13,-1
 810 754 797 789 778 813 c 0,16,-1
 761 835 749 848 719 863 c 0,19,-1
 695 875 638 880 610 880 c 2,1,-1
609 990 m 2,22,-1
 609 990 610 990 610 990 c 0,25,-1
 640 990 682 986 722 978 c 0,28,-1
 749 972 769 963 788 950 c 0,31,-1
 823 925 852 899 876 863 c 0,34,-1
 909 813 920 762 920 717 c 0,37,-1
 920 672 908 638 897 611 c 0,40,-1
 881 572 869 557 849 535 c 0,43,-1
 835 520 817 500 800 492 c 0,46,-1
 778 480 752 466 729 461 c 0,49,-1
 692 452 645 445 610 445 c 2,52,-1
 555 445 l 1,53,-1
 920 86 l 1,54,-1
 840 10 l 1,55,-1
 398 445 l 1,56,-1
 190 445 l 1,57,-1
 190 10 l 1,58,-1
 80 10 l 1,59,-1
 80 990 l 1,60,-1
 609 990 l 2,22,-1
EndSplineSet
Validated: 1
EndChar

StartChar: U
Encoding: 85 85 30
Width: 1000
VWidth: 0
HStem: 10 110<361.074 646.92> 970 20G<80 190 810 920>
VStem: 80 110<242.063 990> 810 110<243.682 990>
LayerCount: 2
Fore
SplineSet
810 340 m 5
 810 990 l 29
 920 990 l 29
 920 340 l 21
 920 260 902 213 873 170 c 4
 856 146 832 122 804 100 c 4
 778 81 750 64 723 52 c 4
 664 26 589 10 500 10 c 4
 413 10 348 28 287 50 c 4
 250 63 214 86 183 110 c 4
 155 130 127 164 116 186 c 4
 98 222 80 260 80 340 c 5
 80 990 l 29
 190 990 l 29
 190 340 l 5
 190 260 215 229 244 203 c 4
 274 176 291 167 332 152 c 4
 380 134 421 120 500 120 c 4
 580 120 610 128 651 143 c 4
 698 160 712 166 750 199 c 4
 785 229 810 260 810 340 c 5
EndSplineSet
Validated: 1
EndChar

StartChar: A
Encoding: 65 65 31
Width: 1000
VWidth: 0
HStem: 10 21G<80 204.455 795.545 920> 230 110<320 680> 970 20G<437.551 562.449>
LayerCount: 2
Fore
SplineSet
555 990 m 1
 920 10 l 1
 803 10 l 1
 721 230 l 1
 279 230 l 1
 197 10 l 1
 80 10 l 1
 445 990 l 1
 555 990 l 1
680 340 m 1
 500 821 l 1
 320 340 l 1
 680 340 l 1
EndSplineSet
Validated: 1
EndChar

StartChar: K
Encoding: 75 75 32
Width: 1000
VWidth: 0
HStem: 10 21G<80 190 817.944 858.588> 10 21G<80 190 817.944 858.588> 970 20G<80 190 661.852 700.26>
VStem: 80 110<10 286 450 990>
LayerCount: 2
Fore
SplineSet
80 990 m 1xb0
 190 990 l 1
 190 450 l 1
 680 990 l 1
 758 913 l 1
 503 631 l 1
 920 78 l 1
 833 10 l 1
 428 548 l 1
 190 286 l 1
 190 10 l 1
 80 10 l 1
 80 990 l 1xb0
EndSplineSet
Validated: 1
EndChar

StartChar: S
Encoding: 83 83 33
Width: 1000
VWidth: 0
HStem: 10 110<341.333 668.486> 445 110<315.077 696.366> 880 110<321.616 663.281>
VStem: 80 110<641.163 789.636> 810 110<216.074 364.329>
LayerCount: 2
Fore
SplineSet
101 258 m 0
 112 268 122 273 134 273 c 0
 150 273 169 262 194 236 c 0
 210 219 237 195 269 175 c 0
 300 156 331 144 358 137 c 0
 397 127 449 120 500 120 c 0
 555 120 589 124 633 133 c 0
 677 142 705 153 731 168 c 0
 747 177 766 190 781 207 c 0
 796 224 810 248 810 282 c 0
 810 317 806 340 789 364 c 0
 772 388 758 396 745 404 c 0
 723 418 687 427 647 434 c 0
 602 442 564 445 500 445 c 0
 433 445 374 450 309 465 c 0
 256 477 223 490 180 520 c 0
 148 542 130 563 110 598 c 0
 90 634 80 671 80 717 c 0
 80 764 88 789 107 828 c 0
 122 859 139 879 168 902 c 0
 205 931 225 941 259 953 c 0
 296 966 333 974 380 981 c 0
 414 986 455 990 500 990 c 0
 552 990 599 984 638 978 c 0
 662 974 684 967 706 960 c 0
 726 954 752 941 772 931 c 0
 798 918 827 898 848 880 c 0
 866 864 887 841 907 814 c 0
 915 803 919 792 919 782 c 0
 919 767 912 753 900 743 c 0
 890 734 877 728 863 728 c 0
 849 728 834 734 821 748 c 0
 805 765 793 779 773 797 c 0
 754 814 733 829 710 840 c 0
 693 848 661 860 636 866 c 0
 590 876 560 880 500 880 c 0
 437 880 422 877 377 870 c 0
 347 865 324 861 290 847 c 0
 260 835 238 822 220 801 c 0
 202 779 190 757 190 717 c 0
 190 672 207 639 234 618 c 0
 262 596 311 575 349 567 c 0
 393 557 452 555 500 555 c 0
 547 555 597 553 642 547 c 0
 685 541 700 538 726 530 c 0
 760 520 785 513 816 491 c 0
 848 469 876 435 892 408 c 0
 909 380 920 333 920 282 c 0
 920 232 910 208 894 181 c 0
 875 147 853 124 826 101 c 0
 800 79 769 62 728 44 c 0
 700 32 660 24 631 19 c 0
 604 14 565 10 500 10 c 0
 433 10 379 16 330 30 c 0
 293 40 270 51 242 64 c 0
 219 75 196 90 170 110 c 0
 144 130 118 154 107 168 c 0
 90 188 82 205 82 221 c 0
 82 234 88 246 101 258 c 0
EndSplineSet
Validated: 1
EndChar

StartChar: W
Encoding: 87 87 34
Width: 1000
VWidth: 0
HStem: 10 21G<237.414 362.532 637.468 762.586> 10 21G<237.414 362.532 637.468 762.586> 970 20G<80 190 810 920>
VStem: 80 110<465 990> 810 110<465 990>
LayerCount: 2
Fore
SplineSet
80 990 m 29xb8
 190 990 l 29
 190 465 l 29
 300 180 l 29
 445 555 l 29
 555 555 l 29
 700 180 l 29
 810 465 l 29
 810 990 l 29
 920 990 l 29
 920 445 l 29
 755 10 l 29
 645 10 l 29
 500 395 l 29
 355 10 l 29
 245 10 l 29
 80 445 l 29
 80 990 l 29xb8
EndSplineSet
Validated: 1
EndChar

StartChar: five
Encoding: 53 53 35
Width: 1000
VWidth: 0
HStem: 10 110<327.946 653.598> 555 110<350.659 659.843> 880 110<190 920>
VStem: 80 110<589 880> 810 110<253.445 423.662>
LayerCount: 2
Fore
SplineSet
500 555 m 0
 410 555 362 537 313 521 c 0
 268 507 218 484 179 459 c 0
 143 436 87 391 81 391 c 0
 80 391 80 391 80 391 c 2
 80 990 l 1
 920 990 l 1
 920 880 l 1
 190 880 l 1
 190 589 l 1
 241 613 278 626 308 636 c 0
 331 644 356 651 383 656 c 0
 412 662 446 665 500 665 c 0
 549 665 579 664 604 660 c 0
 625 658 643 653 665 646 c 0
 714 631 743 619 786 589 c 0
 826 561 863 518 882 482 c 0
 905 439 920 389 920 335 c 0
 920 285 906 246 892 216 c 0
 879 186 864 161 843 138 c 0
 819 111 794 90 766 73 c 0
 735 54 701 40 653 27 c 0
 609 15 561 10 500 10 c 0
 444 10 409 15 373 20 c 0
 347 23 315 32 284 40 c 0
 258 47 233 55 198 69 c 0
 169 80 130 99 109 114 c 0
 93 125 85 139 85 154 c 0
 85 165 89 176 96 188 c 0
 108 206 123 217 139 217 c 0
 147 217 154 214 162 210 c 0
 189 195 218 179 246 168 c 0
 279 155 315 144 353 136 c 0
 404 126 449 120 500 120 c 0
 556 120 604 128 627 134 c 0
 655 141 687 152 716 172 c 0
 750 195 766 215 785 247 c 0
 797 268 810 302 810 335 c 0
 810 367 801 398 784 433 c 0
 773 456 748 484 716 505 c 0
 692 520 676 529 645 538 c 0
 610 549 590 555 500 555 c 0
EndSplineSet
Validated: 1
EndChar

StartChar: eight
Encoding: 56 56 36
Width: 1000
VWidth: 0
Flags: W
HStem: 10 110<357.132 642.868> 532 100<409.116 590.884> 880 110<391.855 608.145>
VStem: 81 109<246.004 408.917> 210 109<703.254 822.892> 681 109<703.254 822.892> 810 109<246.004 408.917>
LayerCount: 2
Fore
SplineSet
81 310 m 4
 81 316 81 321 81 327 c 4
 81 463 172 556 303 601 c 5
 246 648 210 713 210 780 c 4
 210 897 338 990 500 990 c 4
 662 990 790 897 790 780 c 4
 790 713 754 648 697 601 c 5
 828 556 919 463 919 327 c 4
 919 321 919 316 919 310 c 4
 909 132 731 10 500 10 c 4
 269 10 91 132 81 310 c 4
320 780 m 4
 319 775 319 770 319 765 c 4
 319 675 434 632 500 632 c 4
 566 632 681 675 681 765 c 4
 681 770 681 775 680 780 c 4
 670 851 570 880 500 880 c 4
 430 880 330 851 320 780 c 4
191 310 m 4
 201 181 363 120 500 120 c 4
 637 120 799 181 809 310 c 4
 809 316 810 321 810 327 c 4
 810 482 632 532 500 532 c 4
 368 532 190 482 190 327 c 4
 190 321 191 316 191 310 c 4
EndSplineSet
Validated: 1
EndChar

StartChar: D
Encoding: 68 68 37
Width: 1000
VWidth: 0
HStem: 10 110<190 644.041> 880 110<190 639.37>
VStem: 80 110<120 880> 810 110<329.358 671.098>
LayerCount: 2
Fore
SplineSet
555 880 m 2
 190 880 l 1
 190 120 l 1
 555 120 l 2
 585 120 615 130 633 137 c 0
 662 149 695 168 721 192 c 0
 739 209 754 230 766 260 c 0
 785 307 790 332 800 393 c 0
 808 444 810 449 810 500 c 0
 810 548 804 607 793 653 c 0
 783 694 780 704 751 757 c 0
 733 790 711 816 674 840 c 0
 640 862 585 880 555 880 c 2
555 10 m 2
 80 10 l 1
 80 990 l 1
 555 990 l 2
 586 990 605 986 643 974 c 0
 688 960 711 948 744 925 c 0
 781 900 788 893 813 862 c 0
 837 831 847 814 860 785 c 0
 875 752 890 720 901 673 c 0
 913 618 920 571 920 500 c 0
 920 426 915 411 902 338 c 0
 894 294 889 269 872 229 c 0
 852 182 845 168 815 133 c 0
 785 98 775 90 734 66 c 0
 695 43 663 30 633 22 c 0
 599 13 580 10 555 10 c 2
EndSplineSet
Validated: 1
EndChar

StartChar: J
Encoding: 74 74 38
Width: 1000
VWidth: 0
Flags: W
HStem: 10 110<343.83 618.061> 880 110<700 755 865 920>
VStem: 80 110<242.063 340> 755 110<243.682 880>
LayerCount: 2
Fore
SplineSet
700 990 m 1
 920 990 l 1
 920 880 l 1
 865 880 l 1
 865 340 l 2
 865 260 845 213 819 170 c 0
 804 145 777 122 751 98 c 0
 728 77 696 53 669 42 c 0
 610 18 562 10 473 10 c 0
 386 10 347 21 286 46 c 0
 250 61 214 86 183 110 c 0
 155 130 127 164 116 186 c 0
 98 222 80 260 80 340 c 1
 190 340 l 1
 190 260 215 229 244 203 c 0
 274 176 291 164 331 147 c 0
 379 126 394 120 473 120 c 0
 553 120 573 122 614 140 c 0
 659 160 670 168 704 205 c 0
 732 236 755 260 755 340 c 2
 755 880 l 1
 700 880 l 1
 700 990 l 1
EndSplineSet
Validated: 1
EndChar

StartChar: C
Encoding: 67 67 39
Width: 1000
VWidth: 0
Flags: W
HStem: 10 110<438.819 684.024> 880 110<436.115 691.66>
VStem: 80 110<376.676 626.221>
LayerCount: 2
Fore
SplineSet
80 500 m 0
 80 782 307 990 550 990 c 0
 751 990 825 916 897 849 c 1
 914 831 923 815 923 799 c 0
 923 788 918 776 908 765 c 0
 898 754 885 747 870 747 c 0
 855 747 838 754 822 768 c 1
 769 821 707 880 550 880 c 0
 371 880 190 721 190 500 c 0
 190 275 382 120 550 120 c 0
 721 120 766 191 818 262 c 1
 833 284 848 291 862 291 c 0
 876 291 888 283 898 276 c 0
 909 267 920 256 920 238 c 0
 920 226 915 211 902 191 c 1
 852 122 758 10 550 10 c 0
 310 10 80 240 80 500 c 0
EndSplineSet
Validated: 1
EndChar

StartChar: G
Encoding: 71 71 40
Width: 1000
VWidth: 0
Flags: W
HStem: 10 110<411.642 640.519> 445 110<390 819> 880 110<436.115 688.746>
VStem: 80 110<366.447 626.221> 819 101<313.056 445>
LayerCount: 2
Fore
SplineSet
80 500 m 0
 80 782 307 990 550 990 c 0
 751 990 830 920 897 849 c 0
 913 832 922 815 922 799 c 0
 922 787 917 775 906 764 c 0
 896 753 883 747 869 747 c 0
 855 747 839 753 822 768 c 0
 769 821 707 880 550 880 c 0
 371 880 190 721 190 500 c 0
 190 275 352 120 520 120 c 0
 691 120 739 213 760 244 c 0
 781 276 801 314 811 352 c 0
 818 379 819 414 819 445 c 1
 390 445 l 1
 390 555 l 1
 920 555 l 1
 920 445 l 1
 920 417 915 352 904 308 c 0
 893 269 881 234 852 191 c 0
 805 120 728 10 520 10 c 0
 280 10 80 240 80 500 c 0
EndSplineSet
Validated: 1
EndChar

StartChar: nine
Encoding: 57 57 41
Width: 1000
VWidth: 0
Flags: W
HStem: 10 110<334.573 618.903> 357 111<351.631 648.989> 880 110<357.132 642.868>
VStem: 81 109<591.083 753.996> 810 109<333.375 450 591.083 753.996>
LayerCount: 2
Fore
SplineSet
919 673 m 4
 919 611 920 570 920 532 c 4
 920 487 919 446 912 380 c 4
 907 328 892 291 879 261 c 4
 866 230 853 208 840 188 c 4
 820 158 798 134 772 110 c 4
 750 90 726 71 686 52 c 4
 630 26 597 10 470 10 c 4
 356 10 308 33 282 43 c 4
 262 51 233 63 202 79 c 4
 166 97 139 116 125 126 c 4
 99 144 87 162 87 180 c 4
 87 190 90 200 97 210 c 4
 107 226 121 234 138 234 c 4
 153 234 170 228 189 215 c 4
 200 207 225 192 254 177 c 4
 280 163 311 151 323 146 c 4
 351 135 392 120 471 120 c 4
 557 120 604 133 638 150 c 4
 668 165 709 198 736 231 c 4
 754 253 765 274 780 311 c 4
 792 340 796 356 801 380 c 4
 805 398 808 421 808 450 c 5
 786 431 777 426 757 416 c 4
 735 404 701 385 620 370 c 4
 578 362 538 357 497 357 c 4
 436 357 373 368 300 392 c 5
 169 437 81 537 81 673 c 4
 81 679 81 684 81 690 c 4
 91 868 269 990 500 990 c 4
 731 990 909 868 919 690 c 4
 919 684 919 679 919 673 c 4
191 690 m 4
 191 684 190 679 190 673 c 4
 190 518 368 468 500 468 c 4
 632 468 810 518 810 673 c 4
 810 679 809 684 809 690 c 4
 799 819 637 880 500 880 c 4
 363 880 201 819 191 690 c 4
EndSplineSet
Validated: 1
EndChar

StartChar: c
Encoding: 99 99 42
Width: 1000
VWidth: 0
HStem: 10 110<392.128 639.558> 730 110<396.622 608.852>
VStem: 80 110<323.572 527.238>
LayerCount: 2
Fore
SplineSet
80 426 m 0
 80 650 234 840 500 840 c 0
 596 840 672 809 737 766 c 0
 800 725 823 691 844 667 c 1
 860 647 866 632 866 621 c 0
 866 621 866 620 866 619 c 0
 862 588 829 569 810 568 c 0
 809 568 809 568 808 568 c 0
 794 568 780 577 763 593 c 1
 743 611 725 644 666 681 c 0
 618 710 557 730 500 730 c 0
 342 730 190 584 190 426 c 0
 190 263 337 120 500 120 c 0
 562 120 603 126 631 138 c 0
 663 151 680 163 696 177 c 0
 705 185 719 199 727 208 c 0
 743 227 762 254 773 267 c 1
 789 289 805 294 820 294 c 0
 821 294 823 294 824 294 c 0
 841 293 867 275 873 258 c 0
 875 253 876 248 876 242 c 0
 876 231 872 219 863 205 c 1
 854 191 836 168 824 152 c 0
 813 138 788 110 773 97 c 0
 751 78 716 52 674 36 c 0
 631 19 577 10 500 10 c 0
 234 10 80 202 80 426 c 0
EndSplineSet
Validated: 1
EndChar

StartChar: e
Encoding: 101 101 43
Width: 1000
VWidth: 0
Flags: W
HStem: 10 110<377.175 625.95> 426 110<214 756> 730 110<371.183 605.6>
VStem: 80 110<307.076 426> 756 120<536 604.249>
LayerCount: 2
Fore
SplineSet
876 426 m 1
 190 426 l 1
 190 243 307 120 500 120 c 0
 629 120 713 171 773 277 c 1
 789 301 808 309 825 309 c 0
 834 309 843 307 849 303 c 0
 865 294 878 275 878 254 c 0
 878 245 876 237 872 228 c 1
 813 87 695 10 500 10 c 0
 214 10 80 182 80 426 c 0
 80 670 224 840 490 840 c 0
 711 840 869 709 876 536 c 1
 876 426 l 1
756 536 m 5
 749 647 624 730 490 730 c 0
 370 730 243 676 214 536 c 1
 756 536 l 5
EndSplineSet
Validated: 1
EndChar

StartChar: B
Encoding: 66 66 44
Width: 1000
VWidth: 0
Flags: W
HStem: 10 110<190 746.764> 445 110<190 609.261> 880 110<190 589.063>
VStem: 80 110<120 445 555 880> 710 110<635.593 785.955> 810 110<191.053 353.748>
LayerCount: 2
Fore
SplineSet
732 525 m 1xf8
 745 521 766 513 777 507 c 0
 803 493 822 478 843 460 c 0
 863 443 874 424 886 406 c 0
 900 384 906 368 912 346 c 0
 917 329 920 328 920 282 c 0xf4
 920 235 918 232 910 203 c 0
 901 170 892 153 879 130 c 0
 865 105 851 88 840 76 c 0
 829 64 810 47 792 37 c 0
 769 24 745 10 691 10 c 2
 80 10 l 1
 80 990 l 1
 445 990 l 2
 489 990 511 989 552 982 c 0
 588 976 631 962 663 948 c 0
 696 933 723 913 751 883 c 0
 772 860 794 828 802 805 c 0
 808 787 820 758 820 717 c 0
 820 676 814 652 808 635 c 0
 798 604 790 589 774 565 c 0
 760 545 751 537 732 525 c 1xf8
660 120 m 2
 710 120 722 127 741 138 c 0
 766 152 786 183 794 203 c 0
 802 223 810 247 810 282 c 0
 810 322 799 341 779 366 c 0
 757 394 736 405 708 418 c 0
 683 430 664 436 624 440 c 0
 601 442 466 445 445 445 c 0
 445 445 444 445 444 445 c 2
 190 445 l 1
 190 120 l 1
 660 120 l 2
445 555 m 2
 498 555 522 557 550 562 c 0
 578 567 606 574 631 586 c 0
 652 596 676 615 691 640 c 0
 704 661 710 683 710 717 c 0xf8
 710 750 699 766 692 780 c 0
 683 797 657 823 632 838 c 0
 602 856 577 864 541 872 c 0
 514 878 480 880 445 880 c 2
 190 880 l 1
 190 555 l 1
 445 555 l 2
EndSplineSet
Validated: 1
EndChar

StartChar: parenleft
Encoding: 40 40 45
Width: 1000
VWidth: 0
Flags: W
HStem: 10 110<584.643 724.319> 880 110<573.351 725.462>
VStem: 262 110<356.33 641.046>
LayerCount: 2
Fore
SplineSet
682 990 m 4
 713 990 737 965 737 935 c 4
 737 905 713 880 682 880 c 4
 503 880 372 721 372 500 c 4
 372 275 514 120 682 120 c 4
 712 120 737 93 737 65 c 4
 737 37 712 10 682 10 c 4
 442 10 262 240 262 500 c 4
 262 782 439 990 682 990 c 4
EndSplineSet
Validated: 1
EndChar

StartChar: parenright
Encoding: 41 41 46
Width: 1000
VWidth: 0
Flags: W
HStem: 10 110<274.681 414.357> 880 110<273.538 425.649>
VStem: 627 110<356.33 641.046>
LayerCount: 2
Fore
SplineSet
317 990 m 0
 560 990 737 782 737 500 c 0
 737 240 557 10 317 10 c 0
 287 10 262 37 262 65 c 0
 262 93 287 120 317 120 c 0
 485 120 627 275 627 500 c 0
 627 721 496 880 317 880 c 0
 286 880 262 905 262 935 c 0
 262 965 286 990 317 990 c 0
EndSplineSet
Validated: 1
EndChar

StartChar: six
Encoding: 54 54 47
Width: 1000
VWidth: 0
Flags: W
HStem: 10 110<378.321 621.679> 582 111<366.654 632.984> 880 110<453.381 672.415>
VStem: 81 109<274.715 441.832> 810 109<274.715 441.832>
LayerCount: 2
Fore
SplineSet
81 357 m 0
 81 419 80 430 80 468 c 0
 80 513 90 558 108 622 c 0
 123 674 143 712 159 739 c 0
 177 771 202 806 218 823 c 0
 246 853 269 874 297 895 c 0
 324 915 360 938 400 956 c 0
 429 969 451 974 476 980 c 0
 499 985 525 990 560 990 c 0
 626 990 666 976 694 966 c 0
 714 959 767 937 798 921 c 0
 834 903 861 884 875 874 c 0
 901 856 913 838 913 820 c 0
 913 810 910 800 903 790 c 0
 893 774 879 766 862 766 c 0
 847 766 830 772 811 785 c 0
 800 793 775 808 746 823 c 0
 720 837 693 850 681 855 c 0
 657 865 621 880 559 880 c 0
 526 880 505 875 484 869 c 0
 466 864 448 856 430 848 c 0
 400 834 376 818 344 792 c 0
 322 774 301 753 287 734 c 0
 275 718 259 693 249 674 c 0
 240 657 229 634 220 605 c 1
 242 624 248 628 268 638 c 0
 290 650 298 657 380 680 c 0
 421 692 462 693 503 693 c 0
 564 693 627 684 700 658 c 1
 831 601 919 493 919 357 c 0
 919 351 919 346 919 340 c 0
 909 162 731 10 500 10 c 0
 269 10 91 162 81 340 c 0
 81 346 81 351 81 357 c 0
809 340 m 0
 809 346 810 351 810 357 c 0
 810 514 635 582 500 582 c 0
 364 582 190 514 190 357 c 0
 190 351 191 346 191 340 c 0
 201 209 358 120 500 120 c 0
 642 120 799 209 809 340 c 0
EndSplineSet
Validated: 1
EndChar

StartChar: greater
Encoding: 62 62 48
Width: 1000
VWidth: 0
LayerCount: 2
Fore
SplineSet
135 708 m 1
 135 825 l 1
 865 567 l 1
 865 433 l 1
 135 175 l 25
 135 292 l 25
 725 500 l 25
 135 708 l 1
EndSplineSet
Validated: 1
EndChar

StartChar: less
Encoding: 60 60 49
Width: 1000
VWidth: 0
Flags: W
LayerCount: 2
Fore
SplineSet
865 708 m 1
 275 500 l 25
 865 292 l 25
 865 175 l 25
 135 433 l 1
 135 567 l 1
 865 825 l 1
 865 708 l 1
EndSplineSet
Validated: 1
EndChar

StartChar: numbersign
Encoding: 35 35 51
Width: 1000
VWidth: 0
Flags: W
HStem: 245 110<80 245 355 645 755 920> 645 110<80 245 355 645 755 920>
VStem: 245 110<80 245 355 645 755 920> 645 110<80 245 355 645 755 920>
LayerCount: 2
Fore
SplineSet
645 920 m 1
 755 920 l 1
 755 755 l 1
 920 755 l 1
 920 645 l 1
 755 645 l 1
 755 355 l 1
 920 355 l 1
 920 245 l 1
 755 245 l 1
 755 80 l 1
 645 80 l 1
 645 245 l 1
 355 245 l 1
 355 80 l 1
 245 80 l 1
 245 245 l 1
 80 245 l 1
 80 355 l 1
 245 355 l 1
 245 645 l 1
 80 645 l 1
 80 755 l 1
 245 755 l 1
 245 920 l 1
 355 920 l 1
 355 755 l 1
 645 755 l 1
 645 920 l 1
645 355 m 1
 645 645 l 1
 355 645 l 1
 355 355 l 1
 645 355 l 1
EndSplineSet
Validated: 1
EndChar

StartChar: exclam
Encoding: 33 33 52
Width: 1000
VWidth: 0
HStem: 10 100<445 555> 970 20G<445 555>
VStem: 445 110<10 110 220 990>
LayerCount: 2
Fore
SplineSet
445 110 m 1
 555 110 l 1
 555 10 l 1
 445 10 l 1
 445 110 l 1
445 990 m 1
 555 990 l 1
 555 220 l 1
 445 220 l 1
 445 990 l 1
EndSplineSet
Validated: 1
EndChar

StartChar: ydieresis
Encoding: 255 255 53
Width: 1000
VWidth: 0
HStem: 10 110<271 729>
LayerCount: 2
Fore
SplineSet
500 516 m 25
 271 120 l 25
 729 120 l 25
 500 516 l 25
500 737 m 29
 920 10 l 25
 80 10 l 25
 500 737 l 29
EndSplineSet
Validated: 1
EndChar

StartChar: thorn
Encoding: 254 254 54
Width: 1000
VWidth: 0
HStem: 10 110<282.029 373.305> 10 21G<797.5 845> 627 110<285.333 368.482>
VStem: 80 110<255.602 481.457>
LayerCount: 2
Fore
SplineSet
190 373 m 0xb0
 190 249 269 120 324 120 c 0
 360 120 375 143 389 161 c 1
 432 224 466 285 507 351 c 1
 513 361 514 366 514 373 c 0
 514 378 512 386 507 395 c 1
 395 573 l 1
 384 589 360 627 324 627 c 0
 272 627 190 487 190 373 c 0xb0
820 617 m 1
 661 373 l 1
 820 130 l 1
 844 90 920 129 920 65 c 0
 920 14 870 10 820 10 c 0x70
 775 10 753 22 736 50 c 1
 590 282 l 1
 497 125 l 2
 492 117 475 92 470 85 c 0
 435 36 392 10 324 10 c 0
 212 10 80 174 80 373 c 0
 80 572 212 737 324 737 c 0
 383 737 428 708 461 666 c 0
 473 652 485 637 498 617 c 2
 590 464 l 1
 736 688 l 1
 757 720 785 737 820 737 c 0
 869 737 920 735 920 682 c 0
 920 623 841 649 820 617 c 1
EndSplineSet
Validated: 1
EndChar

StartChar: otilde
Encoding: 245 245 55
Width: 1000
VWidth: 0
HStem: 445 110<80 738>
LayerCount: 2
Fore
SplineSet
80 555 m 29
 738 555 l 5
 619 707 l 5
 706 775 l 5
 920 500 l 5
 706 225 l 5
 619 293 l 5
 738 445 l 5
 80 445 l 29
 80 555 l 29
EndSplineSet
Validated: 1
EndChar

StartChar: odieresis
Encoding: 246 246 56
Width: 1000
VWidth: 0
Flags: W
HStem: 445 110<262 920>
LayerCount: 2
Fore
SplineSet
920 555 m 25
 920 445 l 25
 262 445 l 1
 381 293 l 1
 294 225 l 1
 80 500 l 1
 294 775 l 1
 381 707 l 1
 262 555 l 1
 920 555 l 25
EndSplineSet
Validated: 1
EndChar

StartChar: divide
Encoding: 247 247 57
Width: 1000
VWidth: 0
Flags: W
VStem: 445 110<80 738>
LayerCount: 2
Fore
SplineSet
555 80 m 25
 445 80 l 25
 445 738 l 1
 293 619 l 1
 225 706 l 1
 500 920 l 1
 775 706 l 1
 707 619 l 1
 555 738 l 1
 555 80 l 25
EndSplineSet
Validated: 1
EndChar

StartChar: oslash
Encoding: 248 248 58
Width: 1000
VWidth: 0
Flags: W
VStem: 445 110<262 920>
LayerCount: 2
Fore
SplineSet
555 920 m 25
 555 262 l 1
 707 381 l 1
 775 294 l 1
 500 80 l 1
 225 294 l 1
 293 381 l 1
 445 262 l 1
 445 920 l 25
 555 920 l 25
EndSplineSet
Validated: 1
EndChar

StartChar: yacute
Encoding: 253 253 59
Width: 1000
VWidth: 0
Flags: W
HStem: 10 110<403.423 597.877> 445 110<233 767> 880 110<400.832 597.254>
VStem: 120 113<335.775 445 555 661.561> 767 113<339.213 445 555 660.787>
LayerCount: 2
Fore
SplineSet
120 500 m 0
 120 782 257 990 500 990 c 0
 736 990 880 780 880 500 c 4
 880 220 740 10 500 10 c 0
 260 10 120 240 120 500 c 0
233 555 m 1
 767 555 l 5
 747 747 660 880 500 880 c 0
 336 880 253 747 233 555 c 1
767 445 m 5
 233 445 l 1
 254 250 346 120 500 120 c 0
 660 120 747 255 767 445 c 5
EndSplineSet
Validated: 1
EndChar

StartChar: udieresis
Encoding: 252 252 60
Width: 1000
VWidth: 0
HStem: 10 110<344.311 541.689> 626 110<344.828 541.172 703 920>
VStem: 80 110<274.311 471.689> 696 110<274.311 472.97>
LayerCount: 2
Fore
SplineSet
190 373 m 0
 190 234 304 120 443 120 c 0
 582 120 696 234 696 373 c 0
 696 512 582 626 443 626 c 0
 304 626 190 512 190 373 c 0
920 736 m 1
 920 626 l 1
 703 626 l 1
 767 561 806 471 806 373 c 0
 806 173 643 10 443 10 c 0
 243 10 80 173 80 373 c 0
 80 573 243 736 443 736 c 2
 920 736 l 1
EndSplineSet
Validated: 1
EndChar

StartChar: ampersand
Encoding: 38 38 61
Width: 1000
VWidth: 0
HStem: 10 110<457.826 542.174> 445 110<456.847 555 665 775> 880 110<457.826 542.174>
VStem: 335 110<133.806 431.965 568.035 866.194> 555 110<133.806 445 555 665 825 866.194>
LayerCount: 2
Fore
SplineSet
445 175 m 2
 445 145 470 120 500 120 c 0
 530 120 555 145 555 175 c 2
 555 236 l 1
 555 390 l 1
 555 445 l 1
 500 445 l 2
 470 445 445 420 445 390 c 2
 445 175 l 2
335 175 m 2
 335 390 l 2
 335 432 351 471 377 500 c 1
 351 529 335 568 335 610 c 2
 335 825 l 2
 335 916 409 990 500 990 c 0
 591 990 665 916 665 825 c 1
 555 825 l 1
 555 855 530 880 500 880 c 0
 470 880 445 855 445 825 c 2
 445 610 l 2
 445 580 470 555 500 555 c 2
 555 555 l 1
 555 610 l 1
 555 665 l 1
 665 665 l 1
 665 610 l 1
 665 555 l 1
 775 555 l 1
 775 445 l 1
 665 445 l 1
 665 390 l 1
 665 236 l 1
 665 175 l 2
 665 84 591 10 500 10 c 0
 409 10 335 84 335 175 c 2
EndSplineSet
Validated: 1
EndChar

StartChar: q
Encoding: 113 113 62
Width: 1000
VWidth: 0
Flags: M
LayerCount: 2
Fore
SplineSet
755 990 m 1
 865 990 l 1
 865 625 l 1
 865 10 l 1
 755 10 l 1
 755 364 l 1
 689 300 599 260 500 260 c 0
 299 260 135 424 135 625 c 0
 135 826 299 990 500 990 c 0
 599 990 689 950 755 886 c 1
 755 990 l 1
245 625 m 0
 245 484 359 370 500 370 c 0
 641 370 755 484 755 625 c 0
 755 766 641 880 500 880 c 0
 359 880 245 766 245 625 c 0
EndSplineSet
Validated: 1
EndChar

StartChar: d
Encoding: 100 100 63
Width: 1000
VWidth: 0
Flags: W
HStem: 10 110<400.478 600.94> 630 110<400.478 600.94> 970 20G<755 865>
VStem: 135 110<275.478 474.522> 755 110<10 114 275.672 474.328 636 990>
LayerCount: 2
Fore
SplineSet
135 375 m 0
 135 576 299 740 500 740 c 4
 599 740 689 700 755 636 c 1
 755 990 l 1
 865 990 l 1
 865 375 l 1
 865 10 l 1
 755 10 l 1
 755 114 l 1
 689 50 599 10 500 10 c 0
 299 10 135 174 135 375 c 0
245 375 m 0
 245 234 359 120 500 120 c 0
 641 120 755 234 755 375 c 0
 755 516 641 630 500 630 c 0
 359 630 245 516 245 375 c 0
EndSplineSet
Validated: 1
EndChar

StartChar: question
Encoding: 63 63 64
Width: 1000
VWidth: 0
HStem: 10 110<445 555> 880 110<413.439 614.734>
VStem: 445 110<10 120 220 447.369> 710 110<661.931 804.751>
LayerCount: 2
Fore
SplineSet
555 314 m 9
 555 220 l 25
 445 220 l 25
 445 366 l 17
 447 430 466 482 489 515 c 0
 503 534 518 549 547 568 c 0
 579 589 604 600 637 622 c 0
 671 645 683 653 695 671 c 0
 707 688 710 709 710 730 c 0
 710 771 697 795 685 809 c 0
 670 828 635 850 611 860 c 0
 585 871 541 880 500 880 c 0
 461 880 415 862 390 845 c 0
 366 829 334 793 319 769 c 0
 305 747 289 723 269 709 c 0
 260 703 251 700 241 700 c 0
 223 700 205 712 198 729 c 0
 196 734 195 739 195 745 c 0
 195 776 220 818 239 845 c 0
 259 873 281 899 308 919 c 0
 338 941 358 955 395 970 c 0
 422 981 463 990 500 990 c 0
 538 990 590 983 634 969 c 0
 682 954 712 932 742 908 c 0
 760 893 788 862 798 837 c 0
 814 800 820 766 820 730 c 0
 820 690 808 648 794 622 c 0
 781 598 759 577 738 559 c 0
 717 542 694 527 670 513 c 0
 640 495 615 485 594 467 c 0
 572 448 566 433 561 405 c 0
 555 373 555 357 555 314 c 9
445 120 m 25
 555 120 l 25
 555 10 l 25
 445 10 l 25
 445 120 l 25
EndSplineSet
Validated: 1
EndChar

StartChar: ucircumflex
Encoding: 251 251 65
Width: 1000
VWidth: 0
Flags: W
HStem: 13 108<269.177 342.434 657.623 730.823>
VStem: 80 110<273.622 605.25> 810 110<273.622 598.602>
LayerCount: 2
Fore
SplineSet
130 697 m 0
 138 715 160 733 182 733 c 0
 185 733 188 733 191 732 c 0
 210 727 228 710 230 697 c 0
 231 689 232 682 232 676 c 0
 232 621 192 626 190 425 c 0
 190 424 190 423 190 422 c 0
 190 312 240 126 303 121 c 0
 304 121 305 121 306 121 c 0
 355 121 374 214 407 282 c 0
 431 330 436 332 455 355 c 0
 468 372 484 380 500 380 c 0
 516 380 532 372 545 355 c 0
 567 327 567 329 592 276 c 0
 624 209 647 121 694 121 c 0
 695 121 696 121 697 121 c 0
 760 126 810 312 810 422 c 0
 810 423 810 424 810 425 c 0
 808 619 767 622 767 671 c 0
 767 678 768 687 770 697 c 0
 773 710 792 727 811 732 c 0
 814 733 816 733 819 733 c 0
 840 733 862 716 870 697 c 0
 901 623 920 579 920 428 c 0
 920 420 920 413 920 405 c 0
 919 314 901 254 885 203 c 0
 868 153 836 80 775 31 c 0
 761 19 727 13 693 13 c 0
 662 13 631 18 615 31 c 0
 568 68 539 122 526 160 c 0
 514 195 507 212 500 212 c 0
 493 212 486 195 474 160 c 0
 461 121 433 69 385 31 c 0
 369 18 338 13 307 13 c 0
 273 13 239 19 225 31 c 0
 165 80 131 155 114 206 c 0
 98 256 81 316 80 405 c 0
 80 413 80 420 80 428 c 0
 80 579 99 623 130 697 c 0
EndSplineSet
Validated: 1
EndChar

StartChar: underscore
Encoding: 95 95 66
Width: 1000
VWidth: 0
Flags: W
HStem: 10 110<80 920>
LayerCount: 2
Fore
SplineSet
80 120 m 1
 920 120 l 1
 920 10 l 1
 80 10 l 1
 80 120 l 1
EndSplineSet
Validated: 1
EndChar

StartChar: uacute
Encoding: 250 250 67
Width: 1000
VWidth: 0
HStem: 10 21G<445 555> 10 21G<445 555> 139 112<389.138 445 555 610.862> 749 112<389.138 445 555 610.862> 970 20G<445 555>
VStem: 135 110<399.769 600.231> 445 110<10 141.895 251 749 858.105 990> 755 110<399.769 600.231>
LayerCount: 2
Fore
SplineSet
445 251 m 1x3f
 445 749 l 1
 331 724 245 622 245 500 c 0
 245 378 331 276 445 251 c 1x3f
445 861 m 1
 445 990 l 1
 555 990 l 1
 555 861 l 1
 730 834 865 682 865 500 c 0
 865 318 730 166 555 139 c 1
 555 10 l 1
 445 10 l 1xbf
 445 139 l 1
 270 166 135 318 135 500 c 0
 135 682 270 834 445 861 c 1
555 251 m 1
 669 276 755 378 755 500 c 0
 755 622 669 724 555 749 c 1
 555 251 l 1
EndSplineSet
Validated: 1
EndChar

StartChar: degree
Encoding: 176 176 68
Width: 1000
VWidth: 0
HStem: 500 110<427.15 572.85> 880 110<427.15 572.85>
VStem: 255 110<672.15 817.85> 635 110<672.15 817.85>
LayerCount: 2
Fore
SplineSet
365 745 m 0
 365 670 425 610 500 610 c 0
 575 610 635 670 635 745 c 0
 635 820 575 880 500 880 c 0
 425 880 365 820 365 745 c 0
255 745 m 0
 255 880 365 990 500 990 c 0
 635 990 745 880 745 745 c 0
 745 610 635 500 500 500 c 0
 365 500 255 610 255 745 c 0
EndSplineSet
Validated: 1
EndChar

StartChar: o
Encoding: 111 111 69
Width: 1000
VWidth: 0
Flags: W
HStem: 10 110<410.796 589.204> 686 110<410.796 589.204>
VStem: 145 110<286.407 519.593> 745 110<286.407 519.593>
LayerCount: 2
Fore
SplineSet
255 403 m 4
 255 247 365 120 500 120 c 4
 635 120 745 247 745 403 c 4
 745 559 635 686 500 686 c 4
 365 686 255 559 255 403 c 4
145 403 m 4
 145 620 304 796 500 796 c 4
 696 796 855 620 855 403 c 4
 855 186 696 10 500 10 c 4
 304 10 145 186 145 403 c 4
EndSplineSet
Validated: 1
EndChar

StartChar: h
Encoding: 104 104 70
Width: 1000
VWidth: 0
Flags: W
HStem: 10 21G<135 245 755 865> 10 21G<135 245 755 865> 575 110<399.06 599.522> 970 20G<135 245>
VStem: 135 110<10 419.328 581 990> 755 110<10 419.328>
LayerCount: 2
Fore
SplineSet
755 10 m 1xbc
 755 132 755 198 755 320 c 0
 755 461 641 575 500 575 c 0
 359 575 245 461 245 320 c 0
 245 198 245 132 245 10 c 1
 135 10 l 1
 135 337 135 663 135 990 c 1
 245 990 l 1
 245 581 l 1
 311 645 401 685 500 685 c 0
 701 685 865 521 865 320 c 2
 865 10 l 1
 755 10 l 1xbc
EndSplineSet
Validated: 1
EndChar

StartChar: n
Encoding: 110 110 71
Width: 1000
VWidth: 0
Flags: W
HStem: 10 21G<135 245 755 865> 10 21G<135 245 755 865> 710 110<399.06 599.522>
VStem: 135 110<10 554.328 716 820> 755 110<10 554.328>
LayerCount: 2
Fore
SplineSet
755 10 m 1xb8
 755 132 755 333 755 455 c 0
 755 596 641 710 500 710 c 0
 359 710 245 596 245 455 c 0
 245 333 245 132 245 10 c 1
 135 10 l 1
 135 337 135 493 135 820 c 1
 245 820 l 1
 245 716 l 1
 311 780 401 820 500 820 c 0
 701 820 865 656 865 455 c 2
 865 10 l 1
 755 10 l 1xb8
EndSplineSet
Validated: 1
EndChar

StartChar: u
Encoding: 117 117 72
Width: 1000
VWidth: 0
Flags: W
HStem: 10 110<400.478 600.94> 775 20G<135 245 755 865>
VStem: 135 110<275.672 795> 755 110<10 114 275.672 795>
LayerCount: 2
Fore
SplineSet
245 795 m 1
 245 673 245 497 245 375 c 0
 245 234 359 120 500 120 c 0
 641 120 755 234 755 375 c 0
 755 497 755 673 755 795 c 1
 865 795 l 1
 865 468 865 337 865 10 c 1
 755 10 l 1
 755 114 l 1
 689 50 599 10 500 10 c 0
 299 10 135 174 135 375 c 2
 135 795 l 1
 245 795 l 1
EndSplineSet
Validated: 1
EndChar

StartChar: t
Encoding: 116 116 73
Width: 1000
VWidth: 0
Flags: W
HStem: 10 110<593.172 735> 685 110<145 370 480 705> 970 20G<370 480>
VStem: 370 110<218.569 685 795 990>
LayerCount: 2
Fore
SplineSet
735 120 m 1
 735 10 l 1
 534 10 370 104 370 305 c 2
 370 685 l 1
 145 685 l 1
 145 795 l 5
 370 795 l 1
 370 990 l 1
 480 990 l 1
 480 795 l 1
 705 795 l 1
 705 685 l 1
 480 685 l 1
 480 305 l 2
 480 164 594 120 735 120 c 1
EndSplineSet
Validated: 1
EndChar

StartChar: f
Encoding: 102 102 74
Width: 1000
VWidth: 0
Flags: W
HStem: 10 21G<355 465> 10 21G<355 465> 430 110<145 355 465 675> 880 110<547.127 784.396>
VStem: 355 110<10 430 540 796.863>
LayerCount: 2
Fore
SplineSet
882 927 m 5xb8
 819 837 l 1
 784 866 733 880 675 880 c 0
 534 880 465 836 465 695 c 2
 465 540 l 1
 675 540 l 1
 675 430 l 1
 465 430 l 1
 465 10 l 1
 355 10 l 1
 355 430 l 1
 145 430 l 1
 145 540 l 1
 355 540 l 1
 355 695 l 2
 355 896 474 990 675 990 c 0
 755 990 828 968 882 927 c 5xb8
EndSplineSet
Validated: 1
EndChar

StartChar: r
Encoding: 114 114 75
Width: 1000
VWidth: 0
HStem: 10 21G<215 325> 10 21G<215 325> 685 110<325 609.387>
VStem: 215 110<10 685>
LayerCount: 2
Fore
SplineSet
565 685 m 2xb0
 325 685 l 1
 325 10 l 1
 215 10 l 1
 215 272 215 533 215 795 c 1
 430 795 350 795 565 795 c 0
 662 795 746 677 783 594 c 1
 685 546 l 1
 665 593 619 685 565 685 c 2xb0
EndSplineSet
Validated: 1
EndChar

StartChar: l
Encoding: 108 108 76
Width: 1000
VWidth: 0
HStem: 10 21G<500 610> 10 21G<500 610> 881 109<390 500>
VStem: 500 110<10 880>
LayerCount: 2
Fore
SplineSet
390 990 m 25xb0
 610 990 l 25
 610 10 l 25
 500 10 l 25
 500 880 l 25
 390 881 l 29
 390 990 l 25xb0
EndSplineSet
Validated: 1
EndChar

StartChar: a
Encoding: 97 97 77
Width: 1000
VWidth: 0
Flags: W
HStem: 10 110<338.112 498.274> 506 110<338.112 499.033> 685 110<156.847 453.125>
VStem: 145 110<210.611 415.389> 580 110<209.679 416.812>
LayerCount: 2
Fore
SplineSet
145 313 m 0
 145 489 255 616 420 616 c 0
 467 616 510 605 546 585 c 1
 501 663 417 685 325 685 c 2
 200 685 l 2
 170 685 145 710 145 740 c 0
 145 770 170 795 200 795 c 2
 325 795 l 2
 520 795 690 698 690 432 c 0
 690 367 690 301 690 236 c 0
 690 171 702 168 776 124 c 0
 793 114 800 99 800 83 c 0
 800 53 775 22 745 22 c 0
 737 22 729 24 721 29 c 0
 672 57 640 80 619 102 c 1
 572 45 504 10 420 10 c 0
 255 10 145 137 145 313 c 0
255 313 m 0
 255 188 325 120 420 120 c 0
 515 120 580 198 580 313 c 0
 580 428 515 506 420 506 c 0
 325 506 255 438 255 313 c 0
EndSplineSet
Validated: 1
EndChar

StartChar: k
Encoding: 107 107 78
Width: 1000
VWidth: 0
HStem: 10 21G<190 300 662.968 703.402> 10 21G<190 300 662.968 703.402> 970 20G<190 300>
VStem: 190 110<10 320 499 990>
LayerCount: 2
Fore
SplineSet
190 990 m 25xb0
 300 990 l 25
 300 499 l 25
 688 802 l 25
 755 714 l 29
 364 410 l 25
 755 97 l 25
 688 10 l 25
 300 320 l 25
 300 10 l 25
 190 10 l 25
 190 990 l 25xb0
EndSplineSet
Validated: 1
EndChar

StartChar: g
Encoding: 103 103 79
Width: 1000
VWidth: 0
Flags: W
HStem: 10 110<421.619 586.586> 331 109<408.535 593.493> 880 110<412.947 589.194>
VStem: 174 110<561.512 750.611> 716 110<270.72 412 560.923 750.446 902 950>
LayerCount: 2
Fore
SplineSet
716 950 m 1
 826 950 l 1
 826 368 l 2
 826 195 679 10 510 10 c 0
 338 10 233 154 194 217 c 0
 190 224 185 236 185 248 c 0
 185 252 186 255 187 259 c 0
 197 287 216 300 241 303 c 0
 242 303 244 303 245 303 c 0
 258 303 271 296 282 282 c 0
 339 206 398 120 510 120 c 0
 625 120 716 253 716 368 c 2
 716 412 l 1
 660 350 583 331 500 331 c 0
 341 331 174 469 174 652 c 0
 174 834 331 990 500 990 c 0
 583 990 660 964 716 902 c 1
 716 950 l 1
284 652 m 0
 284 526 391 440 500 440 c 0
 608 440 716 526 716 652 c 0
 716 777 618 880 500 880 c 0
 381 880 284 777 284 652 c 0
EndSplineSet
Validated: 1
EndChar

StartChar: z
Encoding: 122 122 80
Width: 1000
VWidth: 0
HStem: 12 108<299 865> 630 110<135 703>
LayerCount: 2
Fore
SplineSet
135 740 m 29
 865 740 l 1
 865 630 l 1
 299 120 l 1
 865 120 l 1
 865 10 l 25
 135 12 l 25
 135 120 l 25
 703 630 l 25
 135 630 l 25
 135 740 l 29
EndSplineSet
Validated: 1
EndChar

StartChar: i
Encoding: 105 105 81
Width: 1000
VWidth: 0
HStem: 10 21G<445 555> 10 21G<445 555> 630 110<445 555>
VStem: 445 110<10 520 630 740>
LayerCount: 2
Fore
SplineSet
445 740 m 25x30
 555 740 l 25
 555 630 l 25
 445 630 l 25
 445 740 l 25x30
445 10 m 25xb0
 445 520 l 25
 555 520 l 25
 555 10 l 25
 445 10 l 25xb0
EndSplineSet
Validated: 1
EndChar
